<svg width="114" height="49" viewBox="0 0 114 49" fill="none" xmlns="http://www.w3.org/2000/svg">
<path fill-rule="evenodd" clip-rule="evenodd" d="M14.5898 48.252C12.0117 48.252 9.60938 47.7539 7.38281 46.7578C5.15625 45.7031 3.36914 44.209 2.02148 42.2754C0.673828 40.3418 0 37.998 0 35.2441C0 32.0215 0.673828 29.3848 2.02148 27.334C3.36914 25.2832 5.15625 23.6719 7.38281 22.5C9.60938 21.2695 12.041 20.3906 14.6777 19.8633C17.373 19.2773 20.0684 18.9258 22.7637 18.8086C25.5176 18.6328 28.0664 18.5449 30.4102 18.5449C30.4102 15.9668 30.1758 13.8281 29.707 12.1289C29.2969 10.3711 28.3594 9.05273 26.8945 8.17383C25.4883 7.29492 22.0605 6.94336 19.0723 6.94336C16.9043 6.94336 14.0625 7.76367 12.4805 8.70117C10.957 9.58008 9.93164 11.1328 9.4043 13.3594H0.0878906C0.615234 10.0781 1.72852 7.5 3.42773 5.625C5.12695 3.75 7.23633 2.40234 9.75586 1.58203C12.2754 0.761719 16.0254 0 19.0723 0C24.5801 0 30.0586 1.23047 33.0469 3.86719C34.9851 5.50724 36.4618 7.57015 37.2798 10.3174C41.6143 4.08186 48.8305 0 57 0C65.5949 0 73.1345 4.51797 77.3736 11.3086C77.5979 8.95354 78.4192 6.99095 79.8374 5.42076C81.5846 3.55556 83.7685 2.18579 86.3892 1.31148C89.0723 0.437158 91.7865 0 94.532 0C104.516 0 110.599 4.63388 112.783 13.9016H103.517C103.08 11.3953 102.051 9.5592 100.429 8.39344C98.8062 7.22769 96.6847 6.64481 94.064 6.64481C92.0049 6.64481 90.1018 7.02368 88.3547 7.78142C86.6076 8.53916 85.734 10.0546 85.734 12.3279C85.734 13.5519 86.3892 14.6885 87.6995 15.7377C89.0099 16.7869 90.601 17.7486 92.4729 18.623C94.4072 19.439 96.2479 20.1676 97.9951 20.8087C99.7422 21.3916 101.053 21.8579 101.926 22.2077C104.172 23.082 106.2 24.0146 108.01 25.0055C109.882 25.9964 111.348 27.2495 112.409 28.765C113.47 30.2805 114 32.3497 114 34.9727C114 38.0619 113.126 40.5683 111.379 42.4918C109.632 44.4153 107.417 45.8142 104.734 46.6885C102.051 47.5628 99.243 48 96.3103 48C90.445 48 85.9524 46.9217 82.8325 44.765C80.4628 43.0827 78.5791 40.4924 77.1814 36.9943C72.909 43.616 65.4665 48 57 48C49.2676 48 42.3893 44.3433 38 38.6648V48.252H30.4102V40.5176C28.3008 42.8613 25.9277 44.7363 23.291 46.1426C20.7129 47.5488 17.8125 48.252 14.5898 48.252ZM79.0898 33.3989H85.6404C86.0772 36.255 87.2627 38.2951 89.197 39.5191C91.1938 40.7432 93.6585 41.3552 96.5911 41.3552C98.9622 41.3552 101.053 40.918 102.862 40.0437C104.672 39.1694 105.576 37.4791 105.576 34.9727C105.576 33.4572 104.89 32.1749 103.517 31.1257C102.145 30.0765 100.397 29.1148 98.2759 28.2404C96.1544 27.3661 93.8768 26.4918 91.4434 25.6175C89.0099 24.6849 86.7324 23.6648 84.6108 22.5574C83.0883 21.7207 81.7586 20.779 80.6217 19.7323C80.8702 21.1173 81 22.5435 81 24C81 27.3357 80.3195 30.5124 79.0898 33.3989ZM14.7656 41.748C18.75 41.748 22.3242 40.4004 25.4883 37.7051C26.4844 36.8262 27.5391 35.7422 28.6523 34.4531C29.8242 33.1055 30.4102 31.6992 30.4102 30.2344V23.9062C28.8867 23.9648 27.1289 24.0527 25.1367 24.1699C23.1445 24.2285 21.123 24.4336 19.0723 24.7852C17.0215 25.0781 15.1172 25.6055 13.3594 26.3672C11.6016 27.1289 10.166 28.2129 9.05273 29.6191C7.99805 30.9668 7.4707 32.7246 7.4707 34.8926C7.4707 37.2363 8.11523 38.9648 9.4043 40.0781C10.6934 41.1914 12.4805 41.748 14.7656 41.748ZM42 35.8997L42.0001 39H51.6571L56.2316 34.3499V38.9997H59.7895V20.3999L62.3309 17.8166V38.9997H65.8888V20.3999L68.4421 17.8045V38.9876H72V14.1878L69.8436 11.9958L65.8888 16.0159V14.2L63.7324 12.008L59.7895 16.0159V8.00003H56.2316V29.9658L51.6571 34.6158V8H49.37L42.5414 14.9414L42 15.5V20L48.0993 13.7205V35.8997H42Z" fill="white"/>
</svg>
