<svg width="30" height="31" viewBox="0 0 30 31" fill="none" xmlns="http://www.w3.org/2000/svg">
<path d="M6.20448e-05 31L0 27.8997H6.09925V3.09997L7.36999 0H9.65714V31H6.20448e-05Z" fill="white"/>
<path d="M14.2316 3.15345e-05H17.7895V30.9997H14.2316V3.15345e-05Z" fill="white"/>
<path d="M26.4421 6.18784H30V30.9876H26.4421V6.18784Z" fill="white"/>
<path d="M21.7324 10.2079L27.8436 3.99583L30 6.18784L23.8888 12.3999L21.7324 10.2079Z" fill="white"/>
<path d="M20.3309 6.19998H23.8888V30.9997H20.3309V6.19998Z" fill="white"/>
<path d="M15.6212 10.2201L21.7324 4.00797L23.8888 6.19998L17.7776 12.4121L15.6212 10.2201Z" fill="white"/>
<path d="M0.541356 6.94136L7.36999 0L9.5264 2.19201L0 12V7.5L0.541356 6.94136Z" fill="white"/>
<path d="M7.5008 28.8077L14.3294 21.8664L16.4858 24.0584L9.65714 31L7.5008 28.8077Z" fill="white"/>
</svg>
